<svg width="65" height="23" viewBox="0 0 65 23" fill="none" xmlns="http://www.w3.org/2000/svg">
<path d="M4.704 18V5.856H0.576V2.4H12.96V5.856H8.832V18H4.704ZM17.6259 18.288C16.3139 18.288 15.3619 17.848 14.7699 16.968C14.1779 16.072 13.8819 14.88 13.8819 13.392V6H18.0099V12.864C18.0099 13.632 18.1059 14.144 18.2979 14.4C18.5059 14.656 18.8099 14.784 19.2099 14.784C19.5939 14.784 19.9139 14.704 20.1699 14.544C20.4259 14.384 20.6819 14.112 20.9379 13.728V6H25.0659V18H21.7059L21.4179 16.416H21.3219C20.8419 16.992 20.3059 17.448 19.7139 17.784C19.1379 18.12 18.4419 18.288 17.6259 18.288ZM27.8529 18V6H31.2129L31.5009 8.064H31.5969C32.0449 7.248 32.5729 6.656 33.1809 6.288C33.8049 5.904 34.4129 5.712 35.0049 5.712C35.3729 5.712 35.6689 5.736 35.8929 5.784C36.1329 5.816 36.3329 5.872 36.4929 5.952L35.7249 9.456C35.5169 9.408 35.3249 9.376 35.1489 9.36C34.9729 9.328 34.7489 9.312 34.4769 9.312C34.0449 9.312 33.5889 9.464 33.1089 9.768C32.6449 10.056 32.2689 10.576 31.9809 11.328V18H27.8529ZM37.8842 18V6H42.0122V18H37.8842ZM39.9482 4.512C39.2762 4.512 38.7322 4.328 38.3162 3.96C37.9002 3.576 37.6922 3.072 37.6922 2.448C37.6922 1.824 37.9002 1.328 38.3162 0.959999C38.7322 0.575999 39.2762 0.383999 39.9482 0.383999C40.6202 0.383999 41.1642 0.575999 41.5802 0.959999C41.9962 1.328 42.2042 1.824 42.2042 2.448C42.2042 3.072 41.9962 3.576 41.5802 3.96C41.1642 4.328 40.6202 4.512 39.9482 4.512ZM45.5183 18V5.856C45.5183 4.992 45.6623 4.192 45.9503 3.456C46.2543 2.72 46.7503 2.128 47.4383 1.68C48.1423 1.232 49.0863 1.008 50.2703 1.008C50.8303 1.008 51.3263 1.056 51.7583 1.152C52.2063 1.248 52.5583 1.344 52.8143 1.44L52.0463 4.368C51.6623 4.272 51.2783 4.224 50.8943 4.224C50.5103 4.224 50.2063 4.336 49.9823 4.56C49.7583 4.768 49.6463 5.152 49.6463 5.712V18H45.5183ZM43.7423 9.216V6.144L45.8063 6H51.6623V9.216H43.7423ZM55.2227 22.512C54.8227 22.512 54.4867 22.488 54.2147 22.44C53.9427 22.392 53.6707 22.32 53.3987 22.224L54.1187 19.2C54.3107 19.248 54.4547 19.272 54.5507 19.272C54.6627 19.288 54.7747 19.296 54.8867 19.296C55.4467 19.296 55.8707 19.184 56.1587 18.96C56.4467 18.736 56.6467 18.448 56.7587 18.096L56.9027 17.568L52.3427 6H56.4707L57.9107 10.608C58.0867 11.152 58.2387 11.704 58.3667 12.264C58.4947 12.824 58.6307 13.408 58.7747 14.016H58.8707C58.9987 13.44 59.1187 12.872 59.2307 12.312C59.3587 11.752 59.4947 11.184 59.6387 10.608L60.8387 6H64.7747L60.7427 17.808C60.3267 18.88 59.8787 19.76 59.3987 20.448C58.9347 21.152 58.3667 21.672 57.6947 22.008C57.0387 22.344 56.2147 22.512 55.2227 22.512Z" fill="#002D4F"/>
</svg>
